<svg viewBox="0 0 24 24" xmlns="http://www.w3.org/2000/svg" fill="white"><path d="M22.28 11.23a4.7 4.7 0 0 0-1.45-3.35c.14-.26.24-.52.24-.8a4.8 4.8 0 0 0-4.8-4.8c-.28 0-.54.1-.81.24a4.7 4.7 0 0 0-3.34-1.45 4.7 4.7 0 0 0-3.35 1.45c-.26-.14-.53-.24-.8-.24a4.8 4.8 0 0 0-4.8 4.8c0 .28.1.54.24.81a4.7 4.7 0 0 0-1.45 3.34 4.7 4.7 0 0 0 1.45 3.35c-.14.26-.24.52-.24.8a4.8 4.8 0 0 0 4.8 4.8c.28 0 .54-.1.81-.24a4.7 4.7 0 0 0 3.34 1.45 4.7 4.7 0 0 0 3.35-1.45c.26.14.53.24.8.24a4.8 4.8 0 0 0 4.8-4.8c0-.28-.1-.54-.24-.81a4.7 4.7 0 0 0 1.45-3.34z"/></svg>
