<svg viewBox="0 0 24 24" xmlns="http://www.w3.org/2000/svg" fill="#8247E5"><path d="M16.7 4.1l-2.4 1.4c-.2.1-.3.3-.3.5v2.8c0 .2.1.4.3.5l2.4 1.4c.2.1.4.1.6 0l2.4-1.4c.2-.1.3-.3.3-.5V6c0-.2-.1-.4-.3-.5l-2.4-1.4c-.2-.1-.4-.1-.6 0zM7.3 9.5l-2.4 1.4c-.2.1-.3.3-.3.5v2.8c0 .2.1.4.3.5l2.4 1.4c.2.1.4.1.6 0l2.4-1.4c.2-.1.3-.3.3-.5v-2.8c0-.2-.1-.4-.3-.5l-2.4-1.4c-.2-.1-.4-.1-.6 0zM16.7 14.9l-2.4 1.4c-.2.1-.3.3-.3.5v2.8c0 .2.1.4.3.5l2.4 1.4c.2.1.4.1.6 0l2.4-1.4c.2-.1.3-.3.3-.5v-2.8c0-.2-.1-.4-.3-.5l-2.4-1.4c-.2-.1-.4-.1-.6 0z"/></svg>
